<svg id="Layer_1" data-name="Layer 1" xmlns="http://www.w3.org/2000/svg" viewBox="0 0 225 150"><defs><style>.cls-1{fill:#f5f6fa;}.cls-2{fill:#3c6382;}</style></defs><title>dice</title><rect class="cls-1" x="2.5" y="2.5" width="70" height="70" rx="7" ry="7"/><path class="cls-2" d="M65.5,5A4.51,4.51,0,0,1,70,9.5v56A4.51,4.51,0,0,1,65.5,70H9.5A4.51,4.51,0,0,1,5,65.5V9.5A4.51,4.51,0,0,1,9.5,5h56m0-5H9.5A9.53,9.53,0,0,0,0,9.5v56A9.53,9.53,0,0,0,9.5,75h56A9.53,9.53,0,0,0,75,65.5V9.5A9.53,9.53,0,0,0,65.5,0Z"/><rect class="cls-1" x="77.5" y="2.5" width="70" height="70" rx="7" ry="7"/><path class="cls-2" d="M140.5,5A4.51,4.51,0,0,1,145,9.5v56a4.51,4.51,0,0,1-4.5,4.5h-56A4.51,4.51,0,0,1,80,65.5V9.5A4.51,4.51,0,0,1,84.5,5h56m0-5h-56A9.53,9.53,0,0,0,75,9.5v56A9.53,9.53,0,0,0,84.5,75h56a9.52,9.52,0,0,0,9.5-9.5V9.5A9.52,9.52,0,0,0,140.5,0Z"/><rect class="cls-1" x="152.5" y="2.5" width="70" height="70" rx="7" ry="7"/><path class="cls-2" d="M215.5,5A4.51,4.51,0,0,1,220,9.5v56a4.51,4.51,0,0,1-4.5,4.5h-56a4.51,4.51,0,0,1-4.5-4.5V9.5A4.51,4.51,0,0,1,159.5,5h56m0-5h-56A9.52,9.52,0,0,0,150,9.5v56a9.52,9.52,0,0,0,9.5,9.5h56a9.52,9.52,0,0,0,9.5-9.5V9.5A9.52,9.52,0,0,0,215.5,0Z"/><rect class="cls-1" x="2.5" y="77.5" width="70" height="70" rx="7" ry="7"/><path class="cls-2" d="M65.5,80A4.51,4.51,0,0,1,70,84.5v56a4.51,4.51,0,0,1-4.5,4.5H9.5A4.51,4.51,0,0,1,5,140.5v-56A4.51,4.51,0,0,1,9.5,80h56m0-5H9.5A9.53,9.53,0,0,0,0,84.5v56A9.53,9.53,0,0,0,9.5,150h56a9.53,9.53,0,0,0,9.5-9.5v-56A9.53,9.53,0,0,0,65.5,75Z"/><rect class="cls-1" x="77.5" y="77.5" width="70" height="70" rx="7" ry="7"/><path class="cls-2" d="M140.5,80a4.51,4.51,0,0,1,4.5,4.5v56a4.51,4.51,0,0,1-4.5,4.5h-56a4.51,4.51,0,0,1-4.5-4.5v-56A4.51,4.51,0,0,1,84.5,80h56m0-5h-56A9.53,9.53,0,0,0,75,84.5v56a9.53,9.53,0,0,0,9.5,9.5h56a9.52,9.52,0,0,0,9.5-9.5v-56a9.52,9.52,0,0,0-9.5-9.5Z"/><rect class="cls-1" x="152.5" y="77.5" width="70" height="70" rx="7" ry="7"/><path class="cls-2" d="M215.5,80a4.51,4.51,0,0,1,4.5,4.5v56a4.51,4.51,0,0,1-4.5,4.5h-56a4.51,4.51,0,0,1-4.5-4.5v-56a4.51,4.51,0,0,1,4.5-4.5h56m0-5h-56a9.52,9.52,0,0,0-9.5,9.5v56a9.52,9.52,0,0,0,9.5,9.5h56a9.52,9.52,0,0,0,9.5-9.5v-56a9.52,9.52,0,0,0-9.5-9.5Z"/><circle class="cls-2" cx="37.5" cy="37.5" r="7.5"/><circle class="cls-2" cx="95.5" cy="20.5" r="7.5"/><circle class="cls-2" cx="129.5" cy="54.5" r="7.5"/><circle class="cls-2" cx="187.5" cy="37.5" r="7.5"/><circle class="cls-2" cx="170.5" cy="20.5" r="7.5"/><circle class="cls-2" cx="204.5" cy="54.5" r="7.5"/><circle class="cls-2" cx="112.5" cy="112.5" r="7.5"/><circle class="cls-2" cx="95.5" cy="95.5" r="7.5"/><circle class="cls-2" cx="129.5" cy="129.5" r="7.5"/><circle class="cls-2" cx="129.5" cy="95.5" r="7.5"/><circle class="cls-2" cx="95.5" cy="129.5" r="7.5"/><circle class="cls-2" cx="20.5" cy="95.5" r="7.5"/><circle class="cls-2" cx="54.5" cy="129.5" r="7.5"/><circle class="cls-2" cx="54.5" cy="95.5" r="7.5"/><circle class="cls-2" cx="20.5" cy="129.5" r="7.5"/><circle class="cls-2" cx="170.5" cy="95.5" r="7.5"/><circle class="cls-2" cx="204.5" cy="129.5" r="7.5"/><circle class="cls-2" cx="204.5" cy="95.5" r="7.5"/><circle class="cls-2" cx="170.5" cy="129.5" r="7.5"/><circle class="cls-2" cx="170.5" cy="112.5" r="7.5"/><circle class="cls-2" cx="204.5" cy="112.5" r="7.5"/></svg>