<?xml version="1.0" encoding="utf-8"?>
<!-- Generator: Adobe Illustrator 22.1.0, SVG Export Plug-In . SVG Version: 6.00 Build 0)  -->
<svg version="1.1" id="Layer_1" xmlns="http://www.w3.org/2000/svg" xmlns:xlink="http://www.w3.org/1999/xlink" x="0px" y="0px"
	 viewBox="0 0 180 120" style="enable-background:new 0 0 180 120;" xml:space="preserve">
<style type="text/css">
	.st0{fill:#F5F6FA;}
	.st1{fill:#DFE4EA;}
	.st2{fill:#3C6382;}
</style>
<g>
	<path class="st0" d="M9.5,59C4.8,59,1,55.2,1,50.5v-41C1,4.8,4.8,1,9.5,1h41C55.2,1,59,4.8,59,9.5v41c0,4.7-3.8,8.5-8.5,8.5H9.5z"
		/>
	<path class="st1" d="M50.5,2C54.6,2,58,5.4,58,9.5v41c0,4.1-3.4,7.5-7.5,7.5h-41C5.4,58,2,54.6,2,50.5v-41C2,5.4,5.4,2,9.5,2H50.5
		 M50.5,0h-41C4.3,0,0,4.3,0,9.5v41C0,55.7,4.3,60,9.5,60h41c5.2,0,9.5-4.3,9.5-9.5v-41C60,4.3,55.7,0,50.5,0L50.5,0z"/>
</g>
<g>
	<path class="st0" d="M69.5,59c-4.7,0-8.5-3.8-8.5-8.5v-41C61,4.8,64.8,1,69.5,1h41c4.7,0,8.5,3.8,8.5,8.5v41c0,4.7-3.8,8.5-8.5,8.5
		H69.5z"/>
	<path class="st1" d="M110.5,2c4.1,0,7.5,3.4,7.5,7.5v41c0,4.1-3.4,7.5-7.5,7.5h-41c-4.1,0-7.5-3.4-7.5-7.5v-41
		C62,5.4,65.4,2,69.5,2H110.5 M110.5,0h-41C64.3,0,60,4.3,60,9.5v41c0,5.2,4.3,9.5,9.5,9.5h41c5.2,0,9.5-4.3,9.5-9.5v-41
		C120,4.3,115.7,0,110.5,0L110.5,0z"/>
</g>
<g>
	<path class="st0" d="M129.5,59c-4.7,0-8.5-3.8-8.5-8.5v-41c0-4.7,3.8-8.5,8.5-8.5h41c4.7,0,8.5,3.8,8.5,8.5v41
		c0,4.7-3.8,8.5-8.5,8.5H129.5z"/>
	<path class="st1" d="M170.5,2c4.1,0,7.5,3.4,7.5,7.5v41c0,4.1-3.4,7.5-7.5,7.5h-41c-4.1,0-7.5-3.4-7.5-7.5v-41
		c0-4.1,3.4-7.5,7.5-7.5H170.5 M170.5,0h-41c-5.2,0-9.5,4.3-9.5,9.5v41c0,5.2,4.3,9.5,9.5,9.5h41c5.2,0,9.5-4.3,9.5-9.5v-41
		C180,4.3,175.7,0,170.5,0L170.5,0z"/>
</g>
<g>
	<path class="st0" d="M9.5,119c-4.7,0-8.5-3.8-8.5-8.5v-41C1,64.8,4.8,61,9.5,61h41c4.7,0,8.5,3.8,8.5,8.5v41c0,4.7-3.8,8.5-8.5,8.5
		H9.5z"/>
	<path class="st1" d="M50.5,62c4.1,0,7.5,3.4,7.5,7.5v41c0,4.1-3.4,7.5-7.5,7.5h-41c-4.1,0-7.5-3.4-7.5-7.5v-41
		C2,65.4,5.4,62,9.5,62H50.5 M50.5,60h-41C4.3,60,0,64.3,0,69.5v41c0,5.2,4.3,9.5,9.5,9.5h41c5.2,0,9.5-4.3,9.5-9.5v-41
		C60,64.3,55.7,60,50.5,60L50.5,60z"/>
</g>
<g>
	<path class="st0" d="M69.5,119c-4.7,0-8.5-3.8-8.5-8.5v-41c0-4.7,3.8-8.5,8.5-8.5h41c4.7,0,8.5,3.8,8.5,8.5v41
		c0,4.7-3.8,8.5-8.5,8.5H69.5z"/>
	<path class="st1" d="M110.5,62c4.1,0,7.5,3.4,7.5,7.5v41c0,4.1-3.4,7.5-7.5,7.5h-41c-4.1,0-7.5-3.4-7.5-7.5v-41
		c0-4.1,3.4-7.5,7.5-7.5H110.5 M110.5,60h-41c-5.2,0-9.5,4.3-9.5,9.5v41c0,5.2,4.3,9.5,9.5,9.5h41c5.2,0,9.5-4.3,9.5-9.5v-41
		C120,64.3,115.7,60,110.5,60L110.5,60z"/>
</g>
<g>
	<path class="st0" d="M129.5,119c-4.7,0-8.5-3.8-8.5-8.5v-41c0-4.7,3.8-8.5,8.5-8.5h41c4.7,0,8.5,3.8,8.5,8.5v41
		c0,4.7-3.8,8.5-8.5,8.5H129.5z"/>
	<path class="st1" d="M170.5,62c4.1,0,7.5,3.4,7.5,7.5v41c0,4.1-3.4,7.5-7.5,7.5h-41c-4.1,0-7.5-3.4-7.5-7.5v-41
		c0-4.1,3.4-7.5,7.5-7.5H170.5 M170.5,60h-41c-5.2,0-9.5,4.3-9.5,9.5v41c0,5.2,4.3,9.5,9.5,9.5h41c5.2,0,9.5-4.3,9.5-9.5v-41
		C180,64.3,175.7,60,170.5,60L170.5,60z"/>
</g>
<circle class="st2" cx="30" cy="30" r="6"/>
<circle class="st2" cx="76.4" cy="16.4" r="6"/>
<circle class="st2" cx="103.6" cy="43.6" r="6"/>
<circle class="st2" cx="150" cy="30" r="6"/>
<circle class="st2" cx="136.4" cy="16.4" r="6"/>
<circle class="st2" cx="163.6" cy="43.6" r="6"/>
<circle class="st2" cx="90" cy="90" r="6"/>
<circle class="st2" cx="76.4" cy="76.4" r="6"/>
<circle class="st2" cx="103.6" cy="103.6" r="6"/>
<circle class="st2" cx="103.6" cy="76.4" r="6"/>
<circle class="st2" cx="76.4" cy="103.6" r="6"/>
<circle class="st2" cx="16.4" cy="76.4" r="6"/>
<circle class="st2" cx="43.6" cy="103.6" r="6"/>
<circle class="st2" cx="43.6" cy="76.4" r="6"/>
<circle class="st2" cx="16.4" cy="103.6" r="6"/>
<circle class="st2" cx="136.4" cy="76.4" r="6"/>
<circle class="st2" cx="163.6" cy="103.6" r="6"/>
<circle class="st2" cx="163.6" cy="76.4" r="6"/>
<circle class="st2" cx="136.4" cy="103.6" r="6"/>
<circle class="st2" cx="136.4" cy="90" r="6"/>
<circle class="st2" cx="163.6" cy="90" r="6"/>
</svg>
