<?xml version="1.0" encoding="utf-8"?>
<!-- Generator: Adobe Illustrator 22.1.0, SVG Export Plug-In . SVG Version: 6.00 Build 0)  -->
<svg version="1.1" id="Layer_1" xmlns="http://www.w3.org/2000/svg" xmlns:xlink="http://www.w3.org/1999/xlink" x="0px" y="0px"
	 viewBox="0 0 96 150.1" style="enable-background:new 0 0 96 150.1;" xml:space="preserve">
<style type="text/css">
	.st0{fill:#E55039;}
</style>
<g>
	<path class="st0" d="M73,48c0-13-9.9-23.6-22.5-24.9c-0.8,0-1.7-0.1-2.5-0.1s-1.7,0-2.5,0.1C32.9,24.4,23,35.1,23,48
		s9.9,23.6,22.5,24.9C46.3,73,47.2,73,48,73s1.7,0,2.5-0.1C63.1,71.7,73,61,73,48z M48,63.7c-8.7,0-15.7-7-15.7-15.7
		s7-15.7,15.7-15.7s15.7,7,15.7,15.7S56.7,63.7,48,63.7z"/>
	<path class="st0" d="M45.5,146.2V98.4c0-10.2-5.1-19.7-13.7-25.2C23.5,67.9,18,58.6,18,48c0-14.8,10.8-27.2,25-29.6
		c1.5-0.2,2.5-1.5,2.5-3V3.3c0-1.8-1.5-3.2-3.3-3C38.6,0.8,35,1.7,31.3,3C17.8,7.8,7.2,18.9,2.7,33c-0.2,0.6-0.4,1.3-0.6,1.9
		c-4.9,17.4,0.4,36.2,13.2,49l5.3,5.3c3.8,3.8,6.5,8.6,7.8,13.8l11.4,44.6C41.3,150.4,45.5,149.4,45.5,146.2z"/>
	<path class="st0" d="M50.5,146.2V98.4c0-10.2,5.1-19.7,13.7-25.2C72.5,67.9,78,58.6,78,48c0-14.8-10.8-27.2-25-29.6
		c-1.5-0.2-2.5-1.5-2.5-3V3.3c0-1.8,1.5-3.2,3.3-3c3.6,0.4,7.2,1.3,10.9,2.6c13.5,4.8,24.1,16,28.6,30c0.2,0.6,0.4,1.3,0.6,1.9
		c4.9,17.4-0.4,36.2-13.2,49l-5.3,5.3c-3.8,3.8-6.5,8.6-7.8,13.8l-11.4,44.6C54.7,150.4,50.5,149.4,50.5,146.2z"/>
</g>
</svg>
